<?xml version="1.0" encoding="utf-8"?>
<!-- Generator: Adobe Illustrator 18.1.1, SVG Export Plug-In . SVG Version: 6.00 Build 0)  -->
<svg version="1.1" id="Layer_1" xmlns="http://www.w3.org/2000/svg" xmlns:xlink="http://www.w3.org/1999/xlink" x="0px" y="0px"
	 viewBox="0 0 500 500" enable-background="new 0 0 500 500" xml:space="preserve">
<g>
	<g>
		<path fill="#FFFFFF" d="M62.2,173.6c25.1-17.7,52.2-32.4,80.6-44.1c3.7-1.5,7.4-3,11.1-4.4c3.1-1.2,8-4.2,11.4-3.5
			c2.1,0.4,3.8,2.3,3.8,4.5c0,2.3-1.9,3.6-3.7,4.5c-3.7,1.9-8.1,3-11.9,4.5c-14.6,5.7-29,12.2-42.9,19.5c-8,4.2-15.8,8.7-23.5,13.4
			c-3.7,2.3-7.3,4.6-10.9,7c-2,1.4-4.3,2.3-4.3,5c0,1.4,0.9,2.5,2.2,2.9c32.1,10.4,62.2,26,90.1,44.8c3,2,7.3,5.4,3.6,9.1
			c-3.4,3.3-7.3-0.7-10.2-2.7c-6.1-4.2-12.3-8.2-18.7-12c-13.5-8-27.4-15.1-41.6-21.6c-8.3-3.8-16.7-7.3-25.1-10.7
			c-4.2-1.7-11.9-3.1-12.5-8.2C59.2,178.7,59.5,175.3,62.2,173.6c3.2-2.1,0.2-7.3-3-5.2c-5.2,3.3-6.3,9.1-5.5,14.9
			c1.3,9.2,13.1,10.9,20.2,13.8c19.8,8.1,39.1,17.2,57.6,27.8c8.3,4.8,16.4,9.9,24.2,15.3c5.5,3.9,12.3,6.1,17.2-0.3
			c4.5-6,1.3-12.6-4.3-16.3c-9.2-6.1-18.5-12.1-28.1-17.6c-20.6-11.8-42.3-21.5-64.9-28.9c0.7,1,1.5,1.9,2.2,2.9c0-0.2,0-0.3,0-0.5
			c-0.5,0.9-1,1.7-1.5,2.6c14.7-10,30-18.9,45.9-26.8c8.6-4.2,17.3-8.2,26.1-11.8c3.9-1.6,7.8-3.2,11.8-4.6
			c3.5-1.3,8.1-2.2,11.1-4.7c4.3-3.6,5.1-10.1,1.7-14.6c-4.4-5.8-10.5-4.1-16.3-2c-16.5,6.1-32.6,13-48.2,21
			c-17.1,8.7-33.6,18.6-49.2,29.7C56.1,170.6,59.1,175.8,62.2,173.6z"/>
	</g>
</g>
<g>
	<g>
		<path fill="#FFFFFF" d="M262.3,95.1c5.4,4.3,5.9,7.9,3.9,14.2c-2,6.2-5.7,11.8-8.9,17.5c-4,7.1-8.1,14.1-12.2,21.2
			c-10.7,18.5-21.5,36.9-31.9,55.6c-3.8,6.9-8.4,14.2-10,22c-0.8,3.8,1,12-4.2,12.5c-6.4,0.6-9.8-8-8.3-12.9
			c3.4-10.9,10.5-21.4,16-31.4c6-11,12.3-21.7,18.6-32.6c12.8-22.2,25.6-44.5,35.9-68c-1.1,0.5-2.3,0.9-3.4,1.4
			c2,0.4,3.9,0.8,5.9,1.2c3.8,0.8,5.4-5,1.6-5.8c-2-0.4-3.9-0.8-5.9-1.2c-1.2-0.2-2.8,0.1-3.4,1.4c-10.7,24.4-24.1,47.5-37.3,70.5
			c-7.3,12.7-14.6,25.3-21.5,38.2c-3.2,6-6.6,11.9-9.4,18.1c-1.9,4.1-4,8.3-3.4,12.9c1,8.1,11.1,17.9,19.6,12.8
			c3.9-2.4,5-7,4.9-11.2c0-5.1,1.5-9.7,3.8-14.1c11.4-21.6,23.9-42.6,36.1-63.8c5.9-10.2,11.8-20.5,17.6-30.7
			c3.2-5.7,6.3-11.8,7-18.4c0.7-6-2.3-10.2-6.8-13.8C263.5,88.4,259.2,92.7,262.3,95.1z"/>
	</g>
</g>
<g>
	<g>
		<path fill="#FFFFFF" d="M421.3,184.3c-29.1,11.3-57.5,24.6-84.3,40.7c-6.3,3.8-12.3,7.8-18.5,11.7c-3.2,2-8.3,1.4-8.3-3.5
			c0-4,6.2-6.8,9.2-8.7c12.7-8.4,25.9-15.9,39.5-22.7c16.3-8.1,33.1-14.9,50.2-20.9c1.3-0.4,2.2-1.5,2.2-2.9c0-0.2,0-0.3,0-0.5
			c0-1.4-0.9-2.4-2.2-2.9c-31.8-11.7-62.6-26-91-44.5c-2.7-1.8-7.9-4-7.9-7.8c0-2.3,1.8-4.3,4-4.7c2.5-0.5,4.5,1.4,6.5,2.7
			c6.7,4.5,13.6,8.8,20.6,12.9c14.7,8.6,29.8,16.3,45.2,23.3c8.3,3.8,16.7,7.4,25.2,10.9c4.3,1.8,11,3.1,11.6,8.4
			c0.3,3.2,0.1,6.8-2.8,8.7c-3.2,2.1-0.2,7.3,3,5.2c5.4-3.5,6.3-9.1,5.7-15.1c-0.9-9.6-12-11.3-19.3-14.4
			c-20.6-8.6-40.8-18.1-60.3-29.1c-9.1-5.1-18-10.6-26.7-16.4c-6-4-14.1-4.6-17.7,3c-3.7,7.8,2.5,12.8,8.4,16.6
			c9,5.9,18.3,11.4,27.7,16.6c21.2,11.5,43.5,21.2,66.2,29.5c-0.7-1-1.5-1.9-2.2-2.9c0,0.2,0,0.3,0,0.5c0.7-1,1.5-1.9,2.2-2.9
			c-34.4,11.9-66.5,27.8-96.8,48c-4.9,3.2-8.1,8.2-5.7,14.2c2.2,5.3,8.4,8.1,13.8,6.1c3.5-1.3,6.6-4.1,9.7-6.1
			c3.8-2.4,7.6-4.8,11.5-7.1c7.6-4.6,15.4-9,23.3-13.1c19.3-10.2,39.2-19.1,59.5-27C426.5,188.7,424.9,182.9,421.3,184.3z"/>
	</g>
</g>
</svg>
