<?xml version="1.0" encoding="utf-8"?>
<!-- Generator: Adobe Illustrator 18.1.1, SVG Export Plug-In . SVG Version: 6.00 Build 0)  -->
<svg version="1.1" id="Layer_1" xmlns:serif="http://www.serif.com/"
	 xmlns="http://www.w3.org/2000/svg" xmlns:xlink="http://www.w3.org/1999/xlink" x="0px" y="0px" viewBox="-699 701 100 100"
	 enable-background="new -699 701 100 100" xml:space="preserve">
<path fill="#FFFFFF" d="M-602.6,709c-1.2-1.2-2.7-1.8-4.4-1.8h-84c-1.7,0-3.2,0.6-4.4,1.8c-1.2,1.2-1.8,2.7-1.8,4.4v75.2
	c0,1.7,0.6,3.2,1.8,4.4c1.2,1.2,2.7,1.8,4.4,1.8h84c1.7,0,3.2-0.6,4.4-1.8c1.2-1.2,1.8-2.7,1.8-4.4v-75.2
	C-600.8,711.7-601.5,710.2-602.6,709z M-692.3,712.1c0.3-0.3,0.8-0.5,1.3-0.5h84c0.5,0,0.9,0.2,1.3,0.5c0.3,0.3,0.5,0.8,0.5,1.3
	v11.3h-87.6v-11.3C-692.8,712.9-692.6,712.4-692.3,712.1z M-605.7,789.9c-0.3,0.3-0.8,0.5-1.3,0.5h-84c-0.5,0-0.9-0.2-1.3-0.5
	c-0.3-0.3-0.5-0.8-0.5-1.3v-59.5h87.6v59.5C-605.2,789.1-605.4,789.6-605.7,789.9z"/>
<path fill="#FFFFFF" d="M-686,721.4c1.8,0,3.3-1.5,3.3-3.3c0-1.8-1.5-3.3-3.3-3.3c-0.1,0-0.2,0-0.3,0c-1.7,0.1-3,1.5-3,3.3
	C-689.3,720-687.8,721.4-686,721.4z"/>
<path fill="#FFFFFF" d="M-677.3,721.4c1.8,0,3.3-1.5,3.3-3.3c0-1.8-1.5-3.3-3.3-3.3c-0.1,0-0.2,0-0.3,0c-1.7,0.1-3,1.5-3,3.3
	C-680.5,720-679.1,721.4-677.3,721.4z"/>
<path fill="#FFFFFF" d="M-668.5,721.4c1.8,0,3.3-1.5,3.3-3.3c0-1.8-1.5-3.3-3.3-3.3c-0.1,0-0.2,0-0.3,0c-1.7,0.1-3,1.5-3,3.3
	C-671.8,720-670.3,721.4-668.5,721.4z"/>
</svg>
