<svg className="main-logo-svg" version="1.1" id="Layer_1" xmlns="http://www.w3.org/2000/svg" x="0px" y="0px"
	 viewBox="0 0 5248 1532" enable-background="new 0 0 5248 1532">
            <g>
                <path d="M5216.5,127.6c-931.3-258.5-2587,72.2-2587,72.2C863.4-103.7,21.7,165.4,21.7,165.4s-6.9,220.8,0,269s55.2,75.9,55.2,75.9
                    c165.6-13.8,165.6,131.1,165.6,131.1s138,655.4,407,779.5c269,124.2,958.9,74.4,958.9,74.4s193.2,22.2,413.9-102
                    c220.8-124.2,476-800.2,476-800.2c151.8-165.6,262.1,6.9,262.1,6.9s207,517.4,331.1,655.4c124.2,138,372.5,200.1,372.5,200.1
                    c434.6,89.7,986.5,0,986.5,0c110.4-20.7,334.6-241.9,334.6-241.9c89.7-27.6,203.5-613.6,203.5-613.6
                    c6.9-144.9,179.3-124.2,179.3-124.2C5244,365.4,5216.5,127.6,5216.5,127.6z M2271.7,524.2c-2.4,11.2-3.7,22.6-4.5,34
                    c-5.4,85.7-41.5,436.6-274.4,696.7c-11.5,12.8-38.1,32-73.2,53.8c-157.7,97.8-284.2,71.4-568.3,75.1
                    c-356.8,4.7-459.7,50.4-594.1-43.7c-41.4-29-63.9-55.9-104.8-104.8c-105.3-140.6-157-272.4-183.5-358.2c0,0-50.4-163.6-39.8-370.6
                    c2.5-49.3,8.9-106,48.5-153.7c37.3-45,87.1-61.7,113.5-69.4c309.5-90.1,678-67.5,678-67.5c246.4,1,547.3,33.6,884.5,139.3
                    c5.3,1.7,10.6,3.1,16,4.3C2196.5,365.6,2298.7,397.6,2271.7,524.2z M4663.1,1162c0,0-152.8,177-345.1,194.5
                    c-192.2,17.5-490.6,29.8-753.9,3.7c-263.3-26.1-495.6-327-591.7-790.1c0,0-52.4-139.8,157.3-244.6c159.3-43,341.9-81.1,545-104.8
                    c369.9-43.3,693.9-25.6,949.1,8.7c16.4,4.7,117.1,35.2,165.9,137.6c33.4,70.1,24.1,135.5,19.5,159.5
                    C4809.2,526.4,4829.1,891.2,4663.1,1162z"/>
                <path fill="none" d="M4809.2,526.4c0,0,19.9,364.7-146.1,635.6c0,0-152.8,177-345.1,194.5c-192.2,17.5-490.6,29.8-753.9,3.7
                    c-263.3-26.1-495.6-327-591.7-790.1c0,0-52.4-139.8,157.3-244.6c159.3-43,341.9-81.1,545-104.8c369.9-43.3,693.9-25.6,949.1,8.7
                    c16.4,4.7,117.1,35.2,165.9,137.6C4823.1,437.1,4813.9,502.5,4809.2,526.4z"/>
                <path fill="none" d="M2271.7,524.2c-2.4,11.2-3.7,22.6-4.5,34c-5.4,85.7-41.5,436.6-274.4,696.7c-11.5,12.8-38.1,32-73.2,53.8
                    c-157.7,97.8-284.2,71.4-568.3,75.1c-356.8,4.7-459.7,50.4-594.1-43.7c-41.4-29-63.9-55.9-104.8-104.8
                    c-105.3-140.6-157-272.4-183.5-358.2c0,0-50.4-163.6-39.8-370.6c2.5-49.3,8.9-106,48.5-153.7c37.3-45,87.1-61.7,113.5-69.4
                    c309.5-90.1,678-67.5,678-67.5c246.4,1,547.3,33.6,884.5,139.3c5.3,1.7,10.6,3.1,16,4.3C2196.5,365.6,2298.7,397.6,2271.7,524.2z"
                    />
                <g>
                    <g>
                        <path fill="#211E1F" d="M1626.1,639.4c-18.3,11.5-36.6,23-54.9,34.6c-44,27.7-87.9,55.3-131.9,83
                            c-53.2,33.5-106.3,66.9-159.5,100.4c-45.9,28.9-91.9,57.8-137.8,86.7c-15.1,9.5-30.1,19-45.2,28.4c-7.2,4.5-14.6,8.8-21.6,13.6
                            c-0.3,0.2-0.6,0.4-0.9,0.6c-2.7,1.7-0.2,6,2.5,4.3c18.3-11.5,36.6-23,54.9-34.6c44-27.7,87.9-55.3,131.9-83
                            c53.2-33.5,106.3-66.9,159.5-100.4c45.9-28.9,91.9-57.8,137.8-86.7c15.1-9.5,30.1-19,45.2-28.4c7.2-4.5,14.6-8.8,21.6-13.6
                            c0.3-0.2,0.6-0.4,0.9-0.6C1631.3,642,1628.8,637.7,1626.1,639.4L1626.1,639.4z"/>
                    </g>
                </g>
                <g>
                    <g>
                        <path fill="#1D191A" d="M1874.4,722.2c-5.2,3.4-10.3,6.9-15.5,10.3c-14,9.4-28.1,18.7-42.1,28.1c-20.8,13.9-41.6,27.7-62.3,41.6
                            c-25.4,16.9-50.7,33.8-76.1,50.7c-27.8,18.5-55.5,37-83.3,55.5c-28,18.7-56.1,37.4-84.1,56.1c-26.1,17.4-52.3,34.9-78.4,52.3
                            c-22.1,14.7-44.2,29.5-66.3,44.2c-15.9,10.6-31.8,21.2-47.7,31.8c-7.5,5-15.3,9.8-22.6,15.1c-0.3,0.2-0.7,0.4-1,0.7
                            c-2.7,1.8-0.2,6.1,2.5,4.3c5.2-3.4,10.3-6.9,15.5-10.3c14-9.4,28.1-18.7,42.1-28.1c20.8-13.9,41.6-27.7,62.3-41.6
                            c25.4-16.9,50.7-33.8,76.1-50.7c27.8-18.5,55.5-37,83.3-55.5c28-18.7,56.1-37.4,84.1-56.1c26.1-17.4,52.3-34.9,78.4-52.3
                            c22.1-14.7,44.2-29.5,66.3-44.2c15.9-10.6,31.8-21.2,47.7-31.8c7.5-5,15.3-9.8,22.6-15.1c0.3-0.2,0.7-0.4,1-0.7
                            C1879.6,724.7,1877.1,720.4,1874.4,722.2L1874.4,722.2z"/>
                    </g>
                </g>
                <g>
                    <g>
                        <path fill="#211E1F" d="M4320.5,662.8c-18.3,11.5-36.6,23-54.9,34.6c-44,27.7-87.9,55.3-131.9,83
                            c-53.2,33.5-106.3,66.9-159.5,100.4c-45.9,28.9-91.9,57.8-137.8,86.7c-15.1,9.5-30.1,19-45.2,28.4c-7.2,4.5-14.6,8.8-21.6,13.6
                            c-0.3,0.2-0.6,0.4-0.9,0.6c-2.7,1.7-0.2,6,2.5,4.3c18.3-11.5,36.6-23,54.9-34.6c44-27.7,87.9-55.3,131.9-83
                            c53.2-33.5,106.3-66.9,159.5-100.4c45.9-28.9,91.9-57.8,137.8-86.7c15.1-9.5,30.1-19,45.2-28.4c7.2-4.5,14.6-8.8,21.6-13.6
                            c0.3-0.2,0.6-0.4,0.9-0.6C4325.7,665.5,4323.2,661.1,4320.5,662.8L4320.5,662.8z"/>
                    </g>
                </g>
                <g>
                    <g>
                        <path fill="#1D191A" d="M4585.1,733.8c-5.2,3.4-10.3,6.9-15.5,10.3c-14,9.4-28.1,18.7-42.1,28.1c-20.8,13.9-41.6,27.7-62.3,41.6
                            c-25.4,16.9-50.7,33.8-76.1,50.7c-27.8,18.5-55.5,37-83.3,55.5c-28,18.7-56.1,37.4-84.1,56.1c-26.1,17.4-52.3,34.9-78.4,52.3
                            c-22.1,14.7-44.2,29.5-66.3,44.2c-15.9,10.6-31.8,21.2-47.7,31.8c-7.5,5-15.3,9.8-22.6,15.1c-0.3,0.2-0.7,0.4-1,0.7
                            c-2.7,1.8-0.2,6.1,2.5,4.3c5.2-3.4,10.3-6.9,15.5-10.3c14-9.4,28.1-18.7,42.1-28.1c20.8-13.9,41.6-27.7,62.3-41.6
                            c25.4-16.9,50.7-33.8,76.1-50.7c27.8-18.5,55.5-37,83.3-55.5c28-18.7,56.1-37.4,84.1-56.1c26.1-17.4,52.3-34.9,78.4-52.3
                            c22.1-14.7,44.2-29.5,66.3-44.2c15.9-10.6,31.8-21.2,47.7-31.8c7.5-5,15.3-9.8,22.6-15.1c0.3-0.2,0.7-0.4,1-0.7
                            C4590.3,736.3,4587.8,732,4585.1,733.8L4585.1,733.8z"/>
                    </g>
                </g>
            </g>
            </svg>